<?xml version="1.0" encoding="UTF-8"?>
<svg id="Laag_1" data-name="Laag 1" xmlns="http://www.w3.org/2000/svg" xmlns:xlink="http://www.w3.org/1999/xlink" viewBox="0 0 1297.26 426.1">
  <defs>
    <style>
      .cls-1 {
        fill: none;
      }

      .cls-2 {
        clip-path: url(#clippath);
      }

      .cls-3 {
        fill: #2980fa;
      }

      .cls-4 {
        clip-path: url(#clippath-1);
      }

      .cls-5 {
        clip-path: url(#clippath-2);
      }

      .cls-6 {
        fill: #1d1d1b;
        font-family: Impact, Impact;
        font-size: 233px;
      }
    </style>
    <clipPath id="clippath">
      <rect class="cls-1" x="0" y="5.1" width="361.76" height="313.78"/>
    </clipPath>
    <clipPath id="clippath-1">
      <rect class="cls-1" x="10.36" y="65.13" width="341.05" height="295.83"/>
    </clipPath>
    <clipPath id="clippath-2">
      <rect class="cls-1" x="326.52" width="970.74" height="426.1"/>
    </clipPath>
  </defs>
  <g>
    <g class="cls-2">
      <path class="cls-3" d="m184.71,207.79V7.03c0-.47.31-.8.69-.9.37-.1.81.04,1.05.45l174.19,301.7c.48.82-.43,1.73-1.26,1.26l-173.53-99.78c-.7-.41-1.14-1.17-1.14-1.97Z"/>
      <path class="cls-3" d="m1.13,308.28L175.32,6.58c.24-.41.67-.55,1.05-.45.37.1.69.42.69.9v200.75c0,.81-.41,1.57-1.11,1.97L2.42,309.54c-.83.48-1.77-.43-1.29-1.26Z"/>
      <path class="cls-3" d="m190.33,238.21c-.21-5.69-.49-12.93-2.94-18.75l168.09,96.69c.82.48.5,1.74-.45,1.74h-48.46c-.54-.85-1.35-1.56-2.47-2.02-4.31-1.75-8.79-3.09-13.19-4.59-.34-.19-.68-.38-1.02-.57,4.84-1.54,4.51-8-.06-9.62-8.38-2.97-16.97-5-25.84-5.79-.16-.01-.31-.02-.47-.04-3.01-2.11-5.99-4.28-9.21-6.1-.58-.33-1.15-.52-1.7-.62-.13-.22-.28-.44-.44-.65-4.43-5.74-12.51-8.37-19.14-10.47-6.27-1.98-12.72-3.3-19.02-5.14-.11-1.85-1.2-3.59-3.54-4.2-3.46-.9-6.82-2.09-10.17-3.33-.55-1.01-1.55-1.79-3.09-2.07-.38-.07-.76-.14-1.14-.22-.27-.12-.56-.22-.88-.29-.26-.31-.55-.59-.9-.82-.46-1.95-1.95-3.6-4.49-3.68.49-6.48.74-12.98.5-19.47Z"/>
      <path class="cls-3" d="m6.31,316.15l162.64-93.55c-.04.27-.07.56-.07.86,0,10.74.08,21.48,1.12,32.17-.83,0-1.71.23-2.6.79-8.1,5.09-16.65,9.39-25.34,13.46-.07,0-.12-.01-.19-.01-1.79,0-3.08.78-3.88,1.9-11.32,5.19-22.79,10.1-33.69,15.9-4.19.91-8.39,1.92-12,4.34-1.63,1.09-2.4,2.64-2.4,4.21-1.8,1.2-3.57,2.45-5.31,3.75-10.04,2.93-20.94,5.81-27.75,14.28-.96,1.19-1.35,2.47-1.33,3.66H6.76c-.96,0-1.27-1.27-.45-1.74Z"/>
      <path class="cls-3" d="m184.77,208.26l-.28-.16V67.01s0-34.49,0-34.49V6.58c.3-.33.91-.44.91-.44"/>
      <polyline class="cls-3" points="177.05 207.79 177.27 207.61 177.3 6.89 176.36 6.14"/>
    </g>
    <g class="cls-4">
      <path class="cls-3" d="m179.84,264.3L16.36,358.33c-.78.44-.48,1.64.42,1.64h328.23c.89,0,1.2-1.18.42-1.64l-163.48-94.03c-.32-.19-.71-.28-1.07-.28-.37,0-.71.09-1.04.28Zm-4.2-197.71L11.48,350.91c-.45.78.43,1.64,1.21,1.18l163.54-94.03c.66-.38,1.04-1.09,1.04-1.86V67.01c0-.45-.3-.75-.65-.85-.35-.09-.76.03-.99.42Zm8.85.42v189.2c0,.76.41,1.47,1.07,1.86l163.54,94.03c.78.44,1.64-.41,1.18-1.18L186.13,66.58c-.22-.39-.63-.52-.99-.42-.35.1-.65.4-.65.85Z"/>
    </g>
  </g>
  <g class="cls-5">
    <text class="cls-6" transform="translate(404.49 305.9)"><tspan x="0" y="0">PROGICS</tspan></text>
  </g>
</svg>